<svg xmlns="http://www.w3.org/2000/svg" viewBox="0 0 841.89 191.52">
  <path fill="#009640" d="M0,0h134.99v38.95H42.2v35.71h92.79v38.95H42.2v38.95h92.79v38.95H0V0Z"/>
  <path fill="#009640" d="M462.63,191.52h-134.99v-38.95h92.79v-38.95h-92.79v-38.95h92.79V38.95h-92.79V0h134.99v191.52Z"/>
  <path fill="#009640" d="M487.52,0h57.35l81.42,133.09h.54V0h42.2v191.52h-55.18l-83.59-136.34h-.54v136.34h-42.2V0Z"/>
  <path fill="#009640" d="M745.04,37.33h-54.64V0h151.49v37.33h-54.65v154.19h-42.2V37.33Z"/>
  <polygon fill="#009640" points="135.12 191.52 202.21 91.43 135.12 0 193.61 0 260.7 91.43 193.61 191.52 135.12 191.52"/>
  <polygon fill="#6fbc85" points="327.65 191.52 260.56 91.43 327.65 0 269.16 0 202.07 91.43 269.16 191.52 327.65 191.52"/>
</svg>